<svg width="180" height="78" viewBox="0 0 86 38">
    <path d="M8.29,37.31a96.67,96.67,0,0,1,11.48-4c2.54-.56,5.6-.5,7.94-1.62a3.42,3.42,0,0,0,.49-5.78c-2.69-2-6.76-1.43-9.81-.88a28.1,28.1,0,0,0-2.84.61,36.41,36.41,0,0,1,4.54-6.4C25.38,13.62,33,10.13,40.43,8.59a35.05,35.05,0,0,1,27.3,6.08c8.18,6,9.95,16.4,17,22.86a.65.65,0,0,0,1.15-.41c1.94-9.59-4.71-21.2-11.79-27.25A42.52,42.52,0,0,0,43.19.17a50.07,50.07,0,0,0-24.5,9.57c-4.28,3.31-7,7.35-9.59,11.67l-1-9C7.47,7.18-.59,8.73,0,13.9c.71,5.66,1.34,11.44,2,17.11C.74,34.29,4,39.09,8.29,37.31Z"/>
</svg>