<svg width="180" height="78" viewBox="0 0 86 38">
    <path d="M84.13,31c.71-5.66,1.34-11.44,2-17.11.62-5.17-7.43-6.72-8.07-1.45l-1,9C74.53,17.09,71.81,13,67.52,9.74A50.07,50.07,0,0,0,43,.17,42.52,42.52,0,0,0,12.13,9.88C5.05,15.93-1.6,27.54.34,37.13a.65.65,0,0,0,1.15.41c7-6.46,8.82-16.91,17-22.86a35.05,35.05,0,0,1,27.3-6.08c7.45,1.54,15,5,20.34,10.65a36.41,36.41,0,0,1,4.54,6.4A28.1,28.1,0,0,0,67.83,25c-3.05-.55-7.12-1.07-9.81.88a3.42,3.42,0,0,0,.49,5.78c2.34,1.13,5.4,1.07,7.94,1.62a96.67,96.67,0,0,1,11.48,4C82.18,39.09,85.47,34.29,84.13,31Z"/>
</svg>