<?xml version="1.0" standalone="no"?>
<svg id="sample-06-01" 
    xmlns="http://www.w3.org/2000/svg"
    width="460.0"
    height="530.0"
    version="1.1"
    viewBox="0 0 460.0 530.0">


    <svg x="140" width="180" height="78" viewBox="0 0 86 38">
        <path d="M8.29,37.31a96.67,96.67,0,0,1,11.48-4c2.54-.56,5.6-.5,7.94-1.62a3.42,3.42,0,0,0,.49-5.78c-2.69-2-6.76-1.43-9.81-.88a28.1,28.1,0,0,0-2.84.61,36.41,36.41,0,0,1,4.54-6.4C25.38,13.62,33,10.13,40.43,8.59a35.05,35.05,0,0,1,27.3,6.08c8.18,6,9.95,16.4,17,22.86a.65.65,0,0,0,1.15-.41c1.94-9.59-4.71-21.2-11.79-27.25A42.52,42.52,0,0,0,43.19.17a50.07,50.07,0,0,0-24.5,9.57c-4.28,3.31-7,7.35-9.59,11.67l-1-9C7.47,7.18-.59,8.73,0,13.9c.71,5.66,1.34,11.44,2,17.11C.74,34.29,4,39.09,8.29,37.31Z"
            fill="#aaaaaa" />
    </svg>

    <svg x="0" y="80" width="140" height="190" viewBox="0 0 140 190">
        <path d="M113.456436 5.467995 L116.86114 178.5979 L60.36203 182.05157 L60.294422 61.60225 L26.428642 78.474396 L20.543053 32.197723 L61.07788 7.4853935 Z"
            fill="#c8eeff"
            stroke="#000000"
            stroke-linecap="square"
            stroke-width="7.0"
            stroke-linejoin="miter"/>
    </svg>

    <svg x="170" y="80" width="120" height="190" viewBox="0 0 120 190">
        <path d="M88.71719 37.135433 L110.86116 54.649582 L35.545174 150.2091 L14.760559 133.35439 Z"
            fill="#c8eeff"
            stroke="#000000"
            stroke-linecap="square"
            stroke-width="7.0"
            stroke-linejoin="miter"/>
    </svg>

    <svg x="320" y="80" width="140" height="190" viewBox="0 0 140 190">
        <path d="M7.6429896 6.8140345 L104.1249 5.420126 L116.389534 16.723225 L123.86449 81.60233 L68.67487 133.04955 L129.47595 127.57019 L130.50471 178.54521 L8.188978 182.07918 L6.939906 135.37543 L70.044655 73.58078 L68.815674 53.30857 L9.780947 57.771152 Z"
            fill="#c8eeff"
            stroke="#000000"
            stroke-linecap="square"
            stroke-width="7.0"
            stroke-linejoin="miter"/>
    </svg>


    




    <svg x="0" y="340" width="140" height="190" viewBox="0 0 140 190">
        <path d="M7.6429896 6.8140345 L104.1249 5.420126 L116.389534 16.723225 L123.86449 81.60233 L68.67487 133.04955 L129.47595 127.57019 L130.50471 178.54521 L8.188978 182.07918 L6.939906 135.37543 L70.044655 73.58078 L68.815674 53.30857 L9.780947 57.771152 Z"
            fill="#7effbf"
            stroke="#000000"
            stroke-linecap="square"
            stroke-width="7.0"
            stroke-linejoin="miter"/>
    </svg>

</svg>