<?xml version="1.0" standalone="no"?>
<svg id="sample-05-03" 
    xmlns="http://www.w3.org/2000/svg"
    width="460.0"
    height="270.0"
    version="1.1"
    viewBox="0 0 460.0 270.0">


    <svg x="140" width="180" height="78" viewBox="0 0 86 38">
        <path d="M84.13,31c.71-5.66,1.34-11.44,2-17.11.62-5.17-7.43-6.72-8.07-1.45l-1,9C74.53,17.09,71.81,13,67.52,9.74A50.07,50.07,0,0,0,43,.17,42.52,42.52,0,0,0,12.13,9.88C5.05,15.93-1.6,27.54.34,37.13a.65.65,0,0,0,1.15.41c7-6.46,8.82-16.91,17-22.86a35.05,35.05,0,0,1,27.3-6.08c7.45,1.54,15,5,20.34,10.65a36.41,36.41,0,0,1,4.54,6.4A28.1,28.1,0,0,0,67.83,25c-3.05-.55-7.12-1.07-9.81.88a3.42,3.42,0,0,0,.49,5.78c2.34,1.13,5.4,1.07,7.94,1.62a96.67,96.67,0,0,1,11.48,4C82.18,39.09,85.47,34.29,84.13,31Z"
            fill="#d6a9a9" />
    </svg>

    <svg x="0" y="80" width="140" height="190" viewBox="0 0 140 190">
        <path d="M113.456436 5.467995 L116.86114 178.5979 L60.36203 182.05157 L60.294422 61.60225 L26.428642 78.474396 L20.543053 32.197723 L61.07788 7.4853935 Z"
            fill="#ffb8b8"
            stroke="#000000"
            stroke-linecap="square"
            stroke-width="7.0"
            stroke-linejoin="miter"/>
    </svg>

    <svg x="170" y="80" width="120" height="190" viewBox="0 0 120 190">
        <path d="M88.71719 37.135433 L110.86116 54.649582 L35.545174 150.2091 L14.760559 133.35439 Z"
            fill="#ffb8b8"
            stroke="#000000"
            stroke-linecap="square"
            stroke-width="7.0"
            stroke-linejoin="miter"/>
    </svg>

    <svg x="320" y="80" width="140" height="190" viewBox="0 0 140 190">
        <path d="M7.6429896 6.8140345 L104.1249 5.420126 L116.389534 16.723225 L123.86449 81.60233 L68.67487 133.04955 L129.47595 127.57019 L130.50471 178.54521 L8.188978 182.07918 L6.939906 135.37543 L70.044655 73.58078 L68.815674 53.30857 L9.780947 57.771152 Z"
            fill="#ffb8b8"
            stroke="#000000"
            stroke-linecap="square"
            stroke-width="7.0"
            stroke-linejoin="miter"/>
    </svg>

</svg>