<?xml version="1.0" standalone="no"?>
<svg id="sample-05-02" 
    xmlns="http://www.w3.org/2000/svg"
    width="460.0"
    height="270.0"
    version="1.1"
    viewBox="0 0 460.0 270.0">


    <svg x="140" width="180" height="78" viewBox="0 0 86 38">
        <path d="M8.29,37.31a96.67,96.67,0,0,1,11.48-4c2.54-.56,5.6-.5,7.94-1.62a3.42,3.42,0,0,0,.49-5.78c-2.69-2-6.76-1.43-9.81-.88a28.1,28.1,0,0,0-2.84.61,36.41,36.41,0,0,1,4.54-6.4C25.38,13.62,33,10.13,40.43,8.59a35.05,35.05,0,0,1,27.3,6.08c8.18,6,9.95,16.4,17,22.86a.65.65,0,0,0,1.15-.41c1.94-9.59-4.71-21.2-11.79-27.25A42.52,42.52,0,0,0,43.19.17a50.07,50.07,0,0,0-24.5,9.57c-4.28,3.31-7,7.35-9.59,11.67l-1-9C7.47,7.18-.59,8.73,0,13.9c.71,5.66,1.34,11.44,2,17.11C.74,34.29,4,39.09,8.29,37.31Z"
            fill="#d6a9a9" />
    </svg>

    <svg x="0" y="80" width="140" height="190" viewBox="0 0 140 190">
        <path d="M7.6429896 6.8140345 L104.1249 5.420126 L116.389534 16.723225 L123.86449 81.60233 L68.67487 133.04955 L129.47595 127.57019 L130.50471 178.54521 L8.188978 182.07918 L6.939906 135.37543 L70.044655 73.58078 L68.815674 53.30857 L9.780947 57.771152 Z"
            fill="#ffb8b8"
            stroke="#000000"
            stroke-linecap="square"
            stroke-width="7.0"
            stroke-linejoin="miter"/>
    </svg>

    <svg x="170" y="80" width="120" height="190" viewBox="0 0 120 190">
        <path d="M110.920166 86.8974 L6.9158773 89.0129 L6.8396854 60.95662 L110.54912 57.29957 Z M110.88158 110.753334 L110.13874 140.05908 L5.501438 140.64978 L5.981331 112.27219 Z"
            fill="#ffb8b8"
            stroke="#000000"
            stroke-linecap="square"
            stroke-width="7.0"
            stroke-linejoin="miter"/>
    </svg>

    <svg x="320" y="80" width="140" height="190" viewBox="0 0 140 190">
        <path d="M116.80662 5.4201856 L124.21083 43.731987 L87.69585 79.87501 L123.11773 96.5147 L128.96509 173.5144 L19.327007 182.07892 L12.420492 136.7272 L76.41918 131.11124 L74.607155 114.58788 L35.01693 105.997284 L35.114998 75.92935 L65.14969 51.4003 L9.64601 53.81834 L8.433657 8.409691 Z"
            fill="#ffb8b8"
            stroke="#000000"
            stroke-linecap="square"
            stroke-width="7.0"
            stroke-linejoin="miter"/>
    </svg>

</svg>